# xmcd CD database file generated by OrangeCD 6.4
#
# Track frame offsets:
#	150
#	17035
#	43530
#
# Disc length: 878 seconds
#
# Revision: 0
# Processed by: cddbd v1.5.2PL0 Copyright (c) Steve Scherf et al.
# Submitted via: OrangeCD 6.4
#
DISCID=1a036c03
DTITLE=E-Rotic - Turn Me On [Maxi]
DYEAR=1997
DGENRE=Euro-House
TTITLE0=Turn Me On [Radio Edit]
TTITLE1=Turn Me On [Extended Version]
TTITLE2=Turn Me On [Club Version]
EXTD=
EXTT0=
EXTT1=
EXTT2=
PLAYORDER=
